<?xml version="1.0" encoding="utf-8"?>
<!-- Generator: Adobe Illustrator 25.0.0, SVG Export Plug-In . SVG Version: 6.00 Build 0)  -->
<svg version="1.1" id="Camada_1" xmlns="http://www.w3.org/2000/svg" xmlns:xlink="http://www.w3.org/1999/xlink" x="0px" y="0px"
	 viewBox="0 0 147.9 31.7" style="enable-background:new 0 0 147.9 31.7;" xml:space="preserve">
<style type="text/css">
	.st0{clip-path:url(#SVGID_2_);}
	.st1{clip-path:url(#SVGID_4_);}
	.st2{clip-path:url(#SVGID_6_);}
	.st3{clip-path:url(#SVGID_8_);}
	.st4{clip-path:url(#SVGID_10_);}
	.st5{clip-path:url(#SVGID_12_);}
	.st6{fill:#00652A;}
	.st7{fill-rule:evenodd;clip-rule:evenodd;fill:#D4DE71;}
	.st8{fill-rule:evenodd;clip-rule:evenodd;fill:#AFCA0B;}
	.st9{clip-path:url(#SVGID_14_);}
	.st10{fill:url(#SVGID_15_);}
	.st11{clip-path:url(#SVGID_17_);}
	.st12{fill:url(#SVGID_18_);}
	.st13{clip-path:url(#SVGID_20_);}
	.st14{fill:url(#SVGID_21_);}
	.st15{fill-rule:evenodd;clip-rule:evenodd;fill:#FAB300;}
</style>
<g id="Camada_2_1_">
	<g id="Camada_1-2">
		<g>
			<defs>
				<path id="SVGID_1_" d="M89.2,16.8c-1.3,1.2-2.6,2.5-3.8,3.9c-0.4,0.5-0.7,1.1-0.9,1.7c-0.2,0.7-0.1,1.5,0.4,2.1
					c0.7,0.7,1.6,1.1,2.6,1.1c-0.1-0.1-0.2-0.3-0.3-0.5C87.1,25,87,24.8,87,24.6c-0.2-0.7-0.1-1.4,0.2-2c0.8-1.4,1.6-2.8,2.6-4.1
					c2.9-3.6,6.5-6.6,10.6-8.7c2.9-1.4,5.9-2.5,9-3.3l-0.4,0.1C101.7,8.2,94.8,11.7,89.2,16.8z"/>
			</defs>
			<clipPath id="SVGID_2_">
				<use xlink:href="#SVGID_1_"  style="overflow:visible;"/>
			</clipPath>
			<g class="st0">
				<g>
					<defs>
						
							<rect id="SVGID_3_" x="82.8" y="4.4" transform="matrix(0.9817 -0.1906 0.1906 0.9817 -1.2951 18.7733)" width="28.3" height="23.5"/>
					</defs>
					<clipPath id="SVGID_4_">
						<use xlink:href="#SVGID_3_"  style="overflow:visible;"/>
					</clipPath>
					<g class="st1">
						
							<image style="overflow:visible;enable-background:new    ;" width="135" height="120" xlink:href="C36645FB.png"  transform="matrix(0.24 0 0 0.24 80.71 1.74)">
						</image>
					</g>
				</g>
			</g>
		</g>
		<g>
			<defs>
				<path id="SVGID_5_" d="M96.6,12.7c-0.7,0.5-1.3,1-1.9,1.5s-1.2,1.1-1.8,1.6c-0.6,0.6-1.2,1.3-1.8,2c-0.6,0.7-1.1,1.5-1.5,2.3
					c-0.9,1.4-1.4,3-1.6,4.6c-0.1,1.2,0.5,2.3,1.5,3c0.9,0.4,2,0.5,2.9,0.1c-1,0-1.9-0.6-2.2-1.5c-0.1-0.2-0.1-0.3-0.1-0.5
					c-0.1-0.6-0.1-1.1,0-1.7c0.2-1.1,0.5-2.1,0.9-3.1c0.4-0.9,0.8-1.9,1.4-2.7c0.5-0.9,1.2-1.7,1.8-2.5c0.5-0.6,1-1.1,1.6-1.6
					s1.1-1,1.7-1.5c2.5-1.9,5.2-3.5,8.1-4.6C102.4,9.3,99.4,10.8,96.6,12.7z"/>
			</defs>
			<clipPath id="SVGID_6_">
				<use xlink:href="#SVGID_5_"  style="overflow:visible;"/>
			</clipPath>
			<g class="st2">
				<g>
					<defs>
						
							<rect id="SVGID_7_" x="86.3" y="6.7" transform="matrix(0.9817 -0.1906 0.1906 0.9817 -1.7102 18.791)" width="21" height="23.1"/>
					</defs>
					<clipPath id="SVGID_8_">
						<use xlink:href="#SVGID_7_"  style="overflow:visible;"/>
					</clipPath>
					<g class="st3">
						
							<image style="overflow:visible;enable-background:new    ;" width="106" height="112" xlink:href="C36645F9.png"  transform="matrix(0.24 0 0 0.24 84.07 4.86)">
						</image>
					</g>
				</g>
			</g>
		</g>
		<g>
			<defs>
				<path id="SVGID_9_" d="M95.4,10.3c-0.4,0.2-0.9,0.5-1.3,0.8c-3.5,2.1-6.7,4.7-9.4,7.8c-0.3,0.4-0.6,0.8-0.9,1.2
					c-0.2,0.3-0.3,0.5-0.5,0.8c-0.1,0.3-0.2,0.6-0.2,0.9c0,0.4,0,0.7,0.2,1c0.1,0.2,0.3,0.3,0.4,0.4c0.2,0.1,0.4,0.2,0.6,0.2
					c0.2,0,0.4,0,0.6,0c-0.1-0.1-0.1-0.3-0.2-0.4c0-0.1-0.1-0.3-0.1-0.5c0-0.3,0.1-0.7,0.2-1c0.1-0.3,0.3-0.6,0.4-0.8
					c1-1.6,2.2-3.1,3.6-4.3c1.8-1.8,3.9-3.4,6.1-4.8l1.1-0.7c3.3-2,6.9-3.4,10.7-4.3c0.8-0.2,1.5-0.4,2.3-0.5s1.5-0.3,2.3-0.4
					c-0.8,0-1.5,0.1-2.3,0.2s-1.5,0.2-2.3,0.3l-0.6,0.1C102.4,7,98.8,8.4,95.4,10.3z"/>
			</defs>
			<clipPath id="SVGID_10_">
				<use xlink:href="#SVGID_9_"  style="overflow:visible;"/>
			</clipPath>
			<g class="st4">
				<g>
					<defs>
						
							<rect id="SVGID_11_" x="81.6" y="3.1" transform="matrix(0.9817 -0.1906 0.1906 0.9817 -0.9805 18.7895)" width="31.1" height="22.8"/>
					</defs>
					<clipPath id="SVGID_12_">
						<use xlink:href="#SVGID_11_"  style="overflow:visible;"/>
					</clipPath>
					<g class="st5">
						
							<image style="overflow:visible;enable-background:new    ;" width="147" height="119" xlink:href="C36645FF.png"  transform="matrix(0.24 0 0 0.24 79.51 0.3)">
						</image>
					</g>
				</g>
			</g>
		</g>
		<path class="st6" d="M72.4,12.9c0.5,0,1-0.1,1.5-0.2c0.4-0.1,0.7-0.3,1-0.6c0.2-0.2,0.4-0.5,0.6-0.9c0.1-0.3,0.2-0.6,0.2-0.9
			c0-0.4-0.1-0.9-0.3-1.3c-0.2-0.3-0.4-0.6-0.7-0.8c-0.3-0.2-0.6-0.3-1-0.4c-0.4-0.1-0.8-0.1-1.2-0.1h-0.9V13L72.4,12.9z M66.3,4.7
			h6.4c1.2,0,2.4,0.1,3.5,0.5c0.9,0.3,1.7,0.7,2.5,1.2c0.6,0.4,1.1,1,1.5,1.6c0.3,0.6,0.5,1.2,0.5,1.9c0,0.5,0,1-0.2,1.5
			c-0.2,1-0.8,2-1.6,2.6c-0.5,0.4-1.1,0.7-1.7,0.9c0.1,0.2,0.2,0.5,0.3,0.7c0.1,0.3,0.3,0.6,0.5,0.9s0.3,0.7,0.6,1l0.6,1
			c0.5,0.8,1,1.7,1.5,2.6h-5.9c-0.2-0.6-0.5-1.2-0.7-1.8c-0.1-0.3-0.2-0.5-0.3-0.9s-0.2-0.6-0.3-0.9s-0.2-0.6-0.3-1s-0.2-0.7-0.2-1
			h-1.5V21h-5.2V4.7z"/>
		<rect x="81.9" y="4.7" class="st6" width="5.2" height="16.4"/>
		<path class="st6" d="M96.5,21.5c-0.9,0-1.8-0.1-2.7-0.3c-0.8-0.2-1.5-0.6-2.1-1c-0.6-0.4-1.1-0.9-1.5-1.4c-0.4-0.6-0.7-1.2-1-1.8
			c-0.3-0.6-0.5-1.3-0.6-2c-0.1-0.7-0.2-1.4-0.2-2.2c0-0.7,0.1-1.4,0.2-2.1c0.1-0.7,0.4-1.4,0.7-2c0.3-0.6,0.7-1.1,1.1-1.6
			c0.4-0.5,1-1,1.6-1.4c0.6-0.4,1.3-0.7,2-0.9c1.7-0.4,3.4-0.4,5.1,0c0.7,0.2,1.4,0.5,2,0.9c0.6,0.4,1.2,0.8,1.7,1.4
			c0.4,0.5,0.8,1.1,1.1,1.7c0.3,0.6,0.5,1.3,0.7,2c0.2,0.7,0.2,1.4,0.2,2.1c0,0.7-0.1,1.4-0.2,2.2c-0.1,0.7-0.3,1.4-0.6,2
			c-0.3,0.6-0.6,1.2-1,1.8c-0.4,0.6-1,1-1.5,1.4c-0.6,0.4-1.4,0.8-2.1,1C98.4,21.4,97.4,21.5,96.5,21.5 M96.5,18.2
			c0.9,0,1.8-0.5,2.2-1.4c0.6-1.3,0.8-2.6,0.8-4c0-0.7-0.1-1.5-0.2-2.2C99.2,10,99,9.4,98.7,8.9c-0.2-0.4-0.5-0.8-0.9-1.1
			c-0.8-0.5-1.8-0.5-2.5,0c-0.4,0.3-0.7,0.7-0.9,1.1c-0.3,0.5-0.5,1.1-0.6,1.7c-0.1,0.7-0.2,1.5-0.2,2.2c-0.1,1.4,0.2,2.7,0.8,4
			C94.7,17.6,95.6,18.1,96.5,18.2L96.5,18.2z"/>
		<path class="st6" d="M114.2,21.5c-1,0-2-0.1-3-0.2c-1-0.2-2-0.5-3-0.9v-3.7c0.8,0.4,1.7,0.7,2.6,0.9c0.9,0.2,1.9,0.3,2.8,0.2
			c0.4,0,0.9-0.1,1.3-0.3c0.2-0.2,0.4-0.5,0.3-0.8c0-0.2,0-0.4-0.1-0.5c-0.1-0.2-0.2-0.3-0.4-0.4c-0.2-0.2-0.5-0.3-0.7-0.4
			c-0.3-0.1-0.7-0.3-1.1-0.5l-1.1-0.5c-0.4-0.2-0.8-0.4-1.2-0.6c-0.4-0.2-0.7-0.5-1.1-0.8c-0.4-0.3-0.7-0.6-0.9-1
			c-0.3-0.4-0.5-0.8-0.7-1.3c-0.2-0.5-0.3-1.1-0.3-1.7c0-0.6,0.1-1.2,0.4-1.8c0.2-0.6,0.6-1.1,1.1-1.5c0.6-0.5,1.3-0.8,2.1-1
			c1-0.3,2.1-0.4,3.1-0.4c0.4,0,0.9,0,1.4,0.1s1,0.1,1.5,0.2c0.5,0.1,1,0.2,1.5,0.3c0.4,0.1,0.8,0.3,1.2,0.5l-0.3,3.4
			c-0.1-0.1-0.4-0.2-0.7-0.3s-0.8-0.2-1.2-0.4s-1-0.2-1.5-0.3c-0.5-0.1-1-0.1-1.5-0.1c-0.2,0-0.5,0-0.7,0.1c-0.2,0-0.4,0.1-0.6,0.2
			c-0.2,0.1-0.3,0.2-0.4,0.3c-0.1,0.1-0.2,0.3-0.2,0.4c0,0.2,0.1,0.4,0.2,0.5c0.2,0.2,0.4,0.3,0.6,0.5c0.3,0.1,0.6,0.3,0.9,0.4
			s0.7,0.3,1.1,0.5s0.7,0.3,1,0.5c0.3,0.2,0.7,0.4,1,0.7c0.4,0.2,0.7,0.5,1,0.8c0.3,0.3,0.6,0.6,0.8,1c0.2,0.4,0.4,0.8,0.6,1.2
			c0.1,0.5,0.2,1,0.2,1.4c0,0.6-0.1,1.3-0.3,1.9c-0.2,0.6-0.5,1.2-1,1.7c-0.5,0.5-1.2,0.9-1.9,1.1C116.1,21.3,115.2,21.5,114.2,21.5
			"/>
		<path class="st6" d="M128.4,21.5c-1,0-2-0.2-2.9-0.5c-0.9-0.3-1.6-0.9-2.2-1.5c-0.6-0.7-1.1-1.6-1.4-2.6c-0.3-1.2-0.5-2.4-0.5-3.6
			V4.7h5.2v8.6c0,0.7,0,1.3,0.1,2c0.1,0.5,0.2,1,0.4,1.5c0.2,0.4,0.4,0.7,0.8,1c0.3,0.2,0.7,0.3,1.2,0.3c0.4,0,0.9-0.1,1.2-0.3
			c0.3-0.2,0.6-0.6,0.7-1c0.2-0.5,0.3-1,0.4-1.5c0.1-0.6,0.1-1.3,0.1-2V4.7h4v8.6c0,2.8-0.6,4.8-1.7,6.2S130.8,21.4,128.4,21.5"/>
		<polygon class="st6" points="137.1,4.7 142.4,4.7 142.4,17.7 147.9,17.7 147.9,21.1 137.1,21.1 		"/>
		<path class="st7" d="M103.1,22.2c-0.4,0.1-0.8,0.3-1.1,0.4c0.3,0.1,0.6,0.2,0.9,0.3s0.4,0.2,0.6,0.3l-0.6,0.4
			c-2.9,1.9-6.1,3.3-9.4,4.1l-0.7,0.1c-0.7,0.1-1.3,0.2-2,0.2h-0.5c-0.6,0-1.3-0.2-1.8-0.5c0.4,0.7,1,1.3,1.7,1.6l0.4,0.2
			c0.3,0.1,0.6,0.2,0.9,0.2c0.2,0,0.4,0.1,0.6,0.1c0.5,0,0.9,0,1.4,0c4.4-0.6,8.6-2.2,12.3-4.6l0.2,0.2c0.2,0.2,0.4,0.5,0.6,0.8
			l0.2-0.5c1.1-2.3,2.3-4.5,3.8-6.6C108.3,20.1,105.7,21.2,103.1,22.2z"/>
		<path class="st8" d="M99.5,14.4c0.4,0.2,0.8,0.4,1.2,0.6c-2.2,1.2-4.1,2.6-6.2,3.7c-0.3,0.2-0.7,0.4-1,0.6s-0.7,0.4-1,0.5
			s-0.7,0.4-1.1,0.5c-2.1,1.1-4.5,1.8-6.8,2h-0.3c-0.2,0-0.4-0.1-0.6-0.1c-0.2-0.1-0.4-0.2-0.5-0.4c0,0.2,0,0.5,0.1,0.7
			c0.1,0.4,0.4,0.7,0.7,1c0.3,0.2,0.7,0.4,1.1,0.5c0.7,0.1,1.3,0.2,2,0.1c0.3,0,0.7,0,1-0.1c1.3-0.2,2.5-0.6,3.7-1.1l0.9-0.4l1-0.5
			l1-0.5l1-0.5l0.9-0.5c0.6-0.3,1.2-0.6,1.8-1l0.9-0.5l0.9-0.6l0.8-0.6l0.8-0.6l0.8-0.6l0.2-0.2c0.2,0.3,0.5,0.5,0.7,0.8l0.3-0.6
			c1.2-2,2.6-3.8,4.1-5.5C105.1,12.6,102.3,13.6,99.5,14.4z"/>
		<path class="st6" d="M147,24.8c-0.4-0.5-1.2-0.5-1.7-0.1c0,0-0.1,0-0.1,0.1c-0.2,0.3-0.3,0.6-0.3,1c0,0.4,0.1,0.7,0.3,1
			c0.4,0.5,1.2,0.5,1.7,0.1c0,0,0.1,0,0.1-0.1c0.2-0.3,0.3-0.6,0.3-1C147.3,25.5,147.2,25.1,147,24.8 M147.4,27.1
			c-0.7,0.7-1.8,0.7-2.5,0c-0.7-0.8-0.7-1.9,0-2.6c0.7-0.7,1.8-0.7,2.5,0C148,25.3,148,26.4,147.4,27.1z M144.2,24.5h-1v3h-0.5v-3
			h-1v-0.4h2.5L144.2,24.5z M141.2,27.6h-0.4l-1.8-2.8v2.8h-0.5v-3.5h0.5l1.7,2.6v-2.6h0.5V27.6z M138,27.6h-2.2v-3.5h2.2v0.4h-1.6
			v1h1.3V26h-1.3v1.2h1.6L138,27.6z M135.2,27.6h-0.5l-0.3-2.6l-0.9,1.8l-1-1.8l-0.3,2.6h-0.5l0.4-3.5h0.4l0.9,1.7l0.9-1.7h0.4
			L135.2,27.6z M130.4,26.2l-0.5-1.5l-0.5,1.5L130.4,26.2z M131.3,27.6h-0.5l-0.3-0.9h-1.3l-0.3,0.9h-0.5l1.2-3.5h0.5L131.3,27.6z
			 M128.1,27.6H126v-3.5h2.1v0.4h-1.6v1h1.3V26h-1.3v1.2h1.7L128.1,27.6z M124.1,24.5h-0.6v1.3h0.8c0.4,0,0.6-0.3,0.6-0.7
			c0-0.1-0.1-0.3-0.2-0.4C124.5,24.5,124.3,24.5,124.1,24.5L124.1,24.5z M125.5,27.6H125l-0.7-1.4h-0.7v1.4H123v-3.5h1.1
			c0.3,0,0.6,0.1,0.9,0.2c0.2,0.2,0.3,0.5,0.3,0.8c0,0.2-0.1,0.4-0.2,0.6c-0.1,0.2-0.3,0.3-0.5,0.4L125.5,27.6z M122.5,24.5h-1v3
			H121v-3h-1v-0.4h2.5L122.5,24.5z M118.4,27.6c-0.4,0-0.8-0.1-1.1-0.2l0.1-0.5c0.3,0.2,0.7,0.4,1.1,0.4c0.2,0,0.4,0,0.6-0.1
			c0.2-0.1,0.2-0.2,0.2-0.4c0-0.1,0-0.2-0.1-0.2c0-0.1-0.1-0.2-0.2-0.2c-0.1,0-0.2-0.1-0.3-0.1l-0.4-0.1l-0.3-0.1l-0.3-0.1
			c-0.1,0-0.2-0.1-0.3-0.2c-0.1-0.1-0.1-0.1-0.2-0.2c0-0.1-0.1-0.2-0.1-0.3c0-0.1,0-0.2,0.1-0.3c0-0.1,0.1-0.2,0.2-0.3
			c0.1-0.1,0.2-0.2,0.4-0.2c0.2-0.1,0.4-0.1,0.6-0.1c0.2,0,0.4,0,0.6,0.1c0.2,0,0.3,0.1,0.5,0.2v0.5c-0.3-0.2-0.6-0.3-1-0.3
			c-0.2,0-0.4,0-0.5,0.1c-0.1,0.1-0.2,0.2-0.2,0.4c0,0.1,0.1,0.3,0.2,0.3c0.2,0.1,0.4,0.2,0.6,0.2l0.2,0.1l0.2,0.1l0.2,0.1l0.2,0.1
			c0.1,0,0.1,0.1,0.2,0.1l0.1,0.1c0.1,0,0.1,0.1,0.1,0.2c0,0,0,0.1,0.1,0.2c0,0.1,0,0.2,0,0.2c0,0.1,0,0.2,0,0.2
			c0,0.1-0.1,0.2-0.1,0.3c-0.1,0.1-0.1,0.2-0.2,0.2c-0.1,0.1-0.3,0.1-0.4,0.2C118.9,27.6,118.7,27.6,118.4,27.6L118.4,27.6z
			 M116,26.2l-0.5-1.5l-0.5,1.5L116,26.2z M117,27.6h-0.5l-0.3-0.9h-1.3l-0.3,0.9h-0.5l1.2-3.5h0.5L117,27.6z M112.6,24.5h-0.6v1.3
			h0.8c0.2,0,0.3-0.1,0.4-0.2c0.2-0.3,0.2-0.7,0-0.9C112.9,24.5,112.8,24.5,112.6,24.5L112.6,24.5z M113.9,27.6h-0.5l-0.7-1.4h-0.7
			v1.4h-0.5v-3.5h1.1c0.3,0,0.6,0.1,0.9,0.2c0.2,0.2,0.3,0.5,0.3,0.8c0,0.2-0.1,0.4-0.2,0.6c-0.1,0.2-0.3,0.3-0.5,0.4L113.9,27.6z"
			/>
		<rect x="20.2" class="st6" width="18" height="29"/>
		<g>
			<defs>
				<polygon id="SVGID_13_" points="0,7 0.1,7.8 0.2,7.8 0.4,7.8 0.8,7.7 1.4,7.7 2.1,7.6 2.9,7.5 3.9,7.4 4.9,7.3 6.1,7.2 7.3,7.1 
					8.6,7 10,6.9 11.5,6.8 13,6.8 14.5,6.8 16.1,6.7 17.7,6.7 19.3,6.8 20.9,6.8 22.5,6.9 24.1,7.1 25.6,7.2 27.1,7.4 28.6,7.7 
					30,8 31.3,8.4 32.5,8.8 33.7,9.2 34.7,9.8 35.7,10.4 36.5,11 37.2,11.8 37.2,11.8 37.2,11.8 37.3,11.9 37.3,11.9 37.4,12 
					37.5,12.1 37.5,12.2 37.6,12.4 37.6,12.5 37.6,12.6 37.6,12.7 37.5,12.9 37.5,13 38.2,12.3 38.2,12.1 38.3,12 38.3,11.9 
					38.3,11.8 38.3,11.6 38.2,11.5 38.2,11.4 38.1,11.3 38,11.2 38,11.1 37.9,11.1 37.9,11 37.9,11 37.2,10.3 36.3,9.6 35.4,9 
					34.3,8.5 33.1,8 31.9,7.6 30.5,7.2 29.1,6.9 27.6,6.6 26.1,6.4 24.5,6.2 22.9,6.1 21.3,6 19.6,5.9 18,5.9 16.4,5.9 14.8,5.9 
					13.2,5.9 11.7,6 10.2,6.1 8.8,6.2 7.4,6.3 6.1,6.4 5,6.5 3.9,6.6 2.9,6.7 2.1,6.8 1.4,6.8 0.8,6.9 0.3,6.9 0.1,7 				"/>
			</defs>
			<clipPath id="SVGID_14_">
				<use xlink:href="#SVGID_13_"  style="overflow:visible;"/>
			</clipPath>
			<g class="st9">
				
					<linearGradient id="SVGID_15_" gradientUnits="userSpaceOnUse" x1="9.71" y1="27.65" x2="28.61" y2="21.5" gradientTransform="matrix(1 0 0 -1 0 34)">
					<stop  offset="0" style="stop-color:#E6A600"/>
					<stop  offset="3.000000e-02" style="stop-color:#E3A300"/>
					<stop  offset="0.46" style="stop-color:#BC7800"/>
					<stop  offset="0.8" style="stop-color:#A45E00"/>
					<stop  offset="1" style="stop-color:#9B5400"/>
				</linearGradient>
				<rect y="5.9" class="st10" width="38.3" height="7.1"/>
			</g>
		</g>
		<g>
			<defs>
				<polygon id="SVGID_16_" points="13.7,10.6 13.4,11.4 13.4,11.7 13.3,12 13.4,12.4 13.4,12.8 13.6,13.3 13.8,13.8 14.2,14.4 
					14.6,15 15.2,15.6 15.8,16.3 16.5,17 17.3,17.7 18.2,18.4 19.1,19.1 20.2,19.8 21.3,20.4 22.5,21.1 23.8,21.7 25.2,22.3 
					26.6,22.8 28.2,23.3 29.8,23.8 31.4,24.1 33.1,24.4 34.9,24.7 36.8,24.8 38.7,24.9 40.7,24.8 42.8,24.7 44.9,24.4 47.1,24 
					49.3,23.5 51.6,22.9 53.9,22.2 56.3,21.2 58.8,20.2 59.9,19.6 57.4,20.7 55,21.6 52.6,22.4 50.2,23.1 48,23.6 45.7,24 
					43.6,24.2 41.5,24.4 39.5,24.4 37.5,24.3 35.6,24.2 33.8,24 32,23.7 30.3,23.3 28.7,22.8 27.1,22.3 25.6,21.8 24.2,21.2 
					22.9,20.5 21.7,19.9 20.5,19.2 19.5,18.5 18.5,17.8 17.6,17.1 16.8,16.4 16,15.7 15.4,15 14.9,14.3 14.4,13.7 14.1,13.1 
					13.8,12.6 13.6,12.1 13.6,11.7 13.6,11.3 13.6,10.9 				"/>
			</defs>
			<clipPath id="SVGID_17_">
				<use xlink:href="#SVGID_16_"  style="overflow:visible;"/>
			</clipPath>
			<g class="st11">
				
					<linearGradient id="SVGID_18_" gradientUnits="userSpaceOnUse" x1="13.34" y1="16.25" x2="59.88" y2="16.25" gradientTransform="matrix(1 0 0 -1 0 34)">
					<stop  offset="0" style="stop-color:#E6A600"/>
					<stop  offset="3.000000e-02" style="stop-color:#E3A300"/>
					<stop  offset="0.46" style="stop-color:#BC7800"/>
					<stop  offset="0.8" style="stop-color:#A45E00"/>
					<stop  offset="1" style="stop-color:#9B5400"/>
				</linearGradient>
				<rect x="13.3" y="10.6" class="st12" width="46.5" height="14.2"/>
			</g>
		</g>
		<g>
			<defs>
				<polygon id="SVGID_19_" points="26.5,14 26,14.7 26,14.6 26,14.6 26.1,14.6 26.1,14.6 26.1,14.6 26.2,14.6 26.2,14.6 26.3,14.6 
					26.4,14.6 26.5,14.6 26.6,14.6 26.7,14.6 26.8,14.7 26.9,14.7 27.1,14.7 27.2,14.8 27.4,14.8 27.6,14.9 27.7,14.9 27.8,14.9 
					28.1,15 28.4,15.1 28.8,15.2 29.2,15.3 29.8,15.4 30.4,15.6 31,15.7 31.8,15.9 32.5,16 33.3,16.1 34.1,16.3 34.9,16.4 
					35.8,16.6 36.6,16.7 37.5,16.8 38.4,16.9 39.2,16.9 40.1,17 40.9,17 41.7,17 42.5,16.9 43.2,16.8 43.9,16.7 44.6,16.6 
					45.2,16.4 45.7,16.1 46.2,15.9 47,15.2 46.6,15.5 46,15.7 45.4,15.9 44.8,16.1 44.1,16.2 43.3,16.3 42.5,16.3 41.7,16.4 
					40.8,16.3 40,16.3 39.1,16.2 38.2,16.1 37.3,16 36.4,15.9 35.6,15.8 34.7,15.7 33.9,15.5 33.1,15.4 32.3,15.2 31.6,15.1 
					31,14.9 30.3,14.8 29.8,14.6 29.3,14.5 28.9,14.4 28.6,14.3 28.3,14.3 28.2,14.2 28.1,14.2 27.9,14.2 27.7,14.1 27.6,14.1 
					27.4,14 27.3,14 27.2,14 27.1,14 27,13.9 26.9,13.9 26.8,13.9 26.7,13.9 26.7,13.9 26.6,13.9 26.6,13.9 26.5,13.9 26.5,14 
					26.5,14 				"/>
			</defs>
			<clipPath id="SVGID_20_">
				<use xlink:href="#SVGID_19_"  style="overflow:visible;"/>
			</clipPath>
			<g class="st13">
				
					<linearGradient id="SVGID_21_" gradientUnits="userSpaceOnUse" x1="26.02" y1="18.55" x2="47.05" y2="18.55" gradientTransform="matrix(1 0 0 -1 0 34)">
					<stop  offset="0" style="stop-color:#E6A600"/>
					<stop  offset="3.000000e-02" style="stop-color:#E3A300"/>
					<stop  offset="0.46" style="stop-color:#BC7800"/>
					<stop  offset="0.8" style="stop-color:#A45E00"/>
					<stop  offset="1" style="stop-color:#9B5400"/>
				</linearGradient>
				<rect x="26" y="13.9" class="st14" width="21" height="3.1"/>
			</g>
		</g>
		<path class="st15" d="M0,7c0,0,31-4.3,37.9,4c0,0,4.6,4.4-16.2-0.9c0,0-9.2-2.9-8,2S33,32,59.9,19.6c0,0-21.9,2.7-33.3-5.5
			c0,0-0.6-0.6,1.6,0.1c0,0,17.9,4.9,19.9-0.2c0,0,1.3-5.2-15-9c0,0-10-2.3-24.9,0.1C8.1,5.1,1.2,6.2,0,7"/>
	</g>
</g>
</svg>
